<svg xmlns="http://www.w3.org/2000/svg" xml:space="preserve" id="Calque_1" x="0" y="0" version="1.1" viewBox="0 0 400 400"><style>.st0{fill:#be1e2d}</style><path d="M192.3 4h14.5c.3.2.6.2 1 .2l6.9.3c2.9.2 5.8.5 8.7.8s5.8.8 8.7 1.3c5.3.8 10.6 2 15.8 3.3q9.45 2.4 18.6 5.7c6 2.2 11.9 4.6 17.6 7.4 3.3 1.6 6.6 3.2 9.8 5 4.3 2.4 8.6 4.9 12.7 7.6 7.1 4.6 13.8 9.7 20.3 15.1 3.1 2.6 6.1 5.4 9.1 8.2 3.9 3.7 7.5 7.6 11 11.6 2.7 3.1 5.3 6.2 7.8 9.4 4.1 5.3 8 10.8 11.5 16.5 3.8 6.1 7.3 12.5 10.5 19 2.4 5.1 4.7 10.2 6.7 15.5 2.5 6.4 4.6 13 6.3 19.7 2.4 9.3 4.2 18.7 5.2 28.2.3 3.1.7 6.3.7 9.4 0 .5 0 1 .3 1.5v21c-.4.6-.3 1.3-.3 2 .1 2.5-.2 5-.5 7.6-.3 3.3-.8 6.6-1.3 9.9-.8 5.2-1.8 10.3-3 15.4-1.9 8-4.2 15.7-7.1 23.4q-3 8.25-6.9 16.2c-1.6 3.3-3.2 6.5-5 9.7-2 3.6-4.1 7.2-6.3 10.7-4 6.3-8.3 12.4-13 18.2-3.2 4-6.5 7.9-10.1 11.5-3.7 3.8-7.5 7.6-11.5 11.2-2.9 2.6-5.8 5.1-8.8 7.5-3.5 2.8-7.1 5.5-10.8 8q-9 6.3-18.6 11.4c-4.6 2.4-9.2 4.7-13.9 6.8q-7.05 3.15-14.4 5.7c-7.6 2.7-15.3 4.8-23.2 6.5-4.6 1-9.2 1.9-13.9 2.5-2 .3-4 .5-6 .8l-6 .6c-1.5.1-3 .2-4.5.4-.2 0-.4.2-.6.2h-21c-.5-.3-1-.3-1.5-.3-1.8-.1-3.6-.2-5.3-.4-2.6-.3-5.1-.6-7.7-.9-4.2-.4-8.4-1.2-12.6-2-5.6-1.1-11.2-2.4-16.7-4-6.5-1.8-12.8-4-19.1-6.5-7.5-3-14.8-6.5-21.9-10.4-3.7-2-7.3-4.2-10.8-6.4-7.5-4.8-14.6-10.1-21.4-15.9q-4.95-4.2-9.6-8.7c-2.6-2.5-5.2-5.1-7.5-7.8-2.1-2.4-4.2-4.7-6.3-7.1-2.7-3.3-5.4-6.7-8-10.2-5.6-7.5-10.5-15.5-14.9-23.7-2.7-5-5.1-10-7.3-15.2-3.7-8.7-6.8-17.7-9.2-26.9-1.2-4.4-2.2-8.9-3-13.4-.7-3.8-1.3-7.7-1.9-11.6-.3-2.3-.6-4.6-.7-6.8-.2-2.3-.5-4.6-.5-6.9 0-1-.2-2.1-.3-3.1 0-.3-.2-.5-.3-.8v-14.5l.3-.6c.1-1.4.3-2.9.4-4.3.2-2.2.2-4.5.5-6.7.5-4 .9-8 1.5-11.9.8-5.2 1.8-10.3 3-15.4 1.8-7.3 3.9-14.5 6.5-21.6 2.1-5.7 4.4-11.3 7-16.8 3.1-6.5 6.6-12.9 10.4-19.1q3.15-5.1 6.6-9.9c3-4.3 6.2-8.4 9.5-12.4 3.1-3.8 6.4-7.4 9.8-10.9 2.3-2.4 4.7-4.7 7.1-7 3-2.7 6-5.4 9-8 4.9-4 9.9-7.8 15.1-11.4s10.6-6.8 16.2-9.8c6.4-3.5 13-6.6 19.7-9.4 5.4-2.2 10.9-4.2 16.5-5.9 6.3-1.9 12.6-3.5 19-4.8s12.9-2.3 19.4-2.8c3.4-.3 6.7-.6 10.1-.7.9.3 1.4.3 1.9 0M12 200.8c0 3.4 0 6.9.2 10.3.2 2.5.3 4.9.5 7.4.3 3.5.8 7 1.3 10.4.7 4.8 1.6 9.5 2.7 14.2 1.7 7.2 3.7 14.2 6.3 21.1 2.3 6.2 4.8 12.2 7.6 18.1 1.3 2.6 2.6 5.1 4 7.7 2.3 4.2 4.7 8.3 7.3 12.3 3.8 5.9 8 11.6 12.5 17.1 2.4 2.9 4.8 5.8 7.3 8.5 5.8 6.2 11.9 12.1 18.5 17.5 5 4.1 10.1 7.9 15.5 11.5 4.4 3 9 5.7 13.7 8.3 6.4 3.5 13 6.6 19.8 9.4 5.4 2.2 10.9 4.1 16.4 5.7 5.1 1.5 10.2 2.8 15.4 3.9 4.3.9 8.7 1.6 13.1 2.3 2.4.4 4.9.5 7.4.8 1.5.2 3.1.2 4.6.4 3.3.3 6.5.5 9.8.5 4.4 0 8.7.1 13.1-.2 3.2-.2 6.4-.4 9.6-.7 2.9-.3 5.8-.6 8.7-1q7.2-1.05 14.4-2.7c7.7-1.7 15.2-4 22.6-6.7 10.3-3.7 20.1-8.4 29.6-13.9 6.2-3.5 12.1-7.5 17.8-11.7 3.3-2.5 6.5-5 9.7-7.7q4.5-3.75 8.7-7.8c4.6-4.4 8.9-9.1 13.1-14 4.5-5.3 8.6-10.7 12.5-16.5q8.4-12.45 14.7-26.1c2.8-6.1 5.3-12.2 7.4-18.6 2.3-6.7 4.1-13.5 5.6-20.4 1.3-5.9 2.2-11.8 3-17.8.5-3.8.8-7.6 1-11.5.2-3.3.2-6.7.3-10 .1-3.1-.1-6.2-.3-9.3-.1-2.3-.2-4.6-.4-6.9-.2-2.7-.6-5.4-.9-8-.4-3.5-1-6.9-1.6-10.4q-1.5-8.4-3.9-16.8c-2.7-9.5-6.1-18.8-10.3-27.8q-6.9-14.85-16.2-28.2c-5-7.2-10.5-14.1-16.5-20.5q-8.4-9.15-18-17.1c-5.1-4.2-10.4-8.2-15.9-11.9-8.4-5.6-17.1-10.5-26.3-14.7-5.5-2.5-11.1-4.7-16.8-6.7-7.9-2.7-15.9-4.9-24.1-6.5-3.7-.7-7.3-1.3-11-1.9-2.3-.4-4.7-.5-7-.8-1.6-.2-3.2-.2-4.8-.4-3.3-.4-6.5-.5-9.8-.5-4.3-.1-8.6-.2-12.9.2-2.1.2-4.1.1-6.2.3-2.5.2-4.9.5-7.4.7-4.2.4-8.4 1.1-12.6 1.9-7.7 1.4-15.2 3.4-22.7 5.8-8.3 2.7-16.4 5.9-24.3 9.7-2.8 1.4-5.7 2.8-8.4 4.4q-5.25 2.85-10.2 6-8.7 5.55-16.8 12c-4.1 3.3-8.1 6.7-11.9 10.4C65.2 69 60.1 74.3 55.4 80c-3.3 4-6.5 8.2-9.5 12.4A189.7 189.7 0 0 0 26.7 127c-2.8 6.6-5.2 13.4-7.2 20.3-1.2 4-2.2 8.1-3.1 12.2-1 4.8-1.9 9.6-2.6 14.4-.3 2-.5 4.1-.8 6.1-.2 1.8-.3 3.5-.5 5.3-.3 3.1-.5 6.3-.6 9.4.1 2.3.1 4.2.1 6.1" class="st0"/><path d="M199.7 347.8h-4.9c-3.1 0-6.2-.3-9.3-.6-2.9-.3-5.7-.6-8.5-1.1-5.7-.9-11.4-2.1-17-3.6-6.8-1.9-13.4-4.2-19.8-7.1-8.6-3.8-16.9-8.4-24.6-13.8-3.8-2.6-7.4-5.4-10.9-8.4-4.7-4-9.1-8.3-13.3-12.7-3.6-3.8-6.9-8-10.1-12.2q-6.6-9-12-18.9c-4-7.6-7.4-15.4-10-23.6-2.3-6.9-4-14-5.1-21.2-.5-3.1-.9-6.2-1.2-9.4-.3-2.7-.4-5.4-.5-8.1-.2-3-.3-6.1-.2-9.1.1-3.1.2-6.2.5-9.3.2-2.5.5-4.9.8-7.4.5-3.8 1.1-7.6 1.9-11.4 1.4-6.5 3.2-12.9 5.5-19.2 1.5-4.3 3.3-8.5 5.2-12.6 2.1-4.4 4.3-8.7 6.8-12.9 3.7-6.1 7.7-12 12.2-17.5 4.6-5.7 9.7-11.1 15.1-16 7.6-6.9 15.8-13 24.6-18.2 9.7-5.7 19.8-10.2 30.5-13.6 6.9-2.2 13.9-3.8 21.1-5 3.3-.5 6.7-.9 10.1-1.3 4.7-.5 9.4-.4 14.1-.4h1.2c4.1 0 8.3.3 12.4.6 5 .5 9.9 1.2 14.8 2.2 8.9 1.8 17.6 4.4 26 7.8 4.6 1.9 9.2 3.9 13.6 6.3 8.1 4.3 15.7 9.3 22.9 15 2.8 2.2 5.5 4.6 8.1 7 1.8 1.6 3.5 3.3 5.2 5 5 5.2 9.7 10.6 13.9 16.4 4.1 5.7 7.8 11.6 11.2 17.8 4.5 8.4 8.1 17.2 10.9 26.4q3 9.75 4.5 19.8c.6 4.1 1.1 8.3 1.4 12.5.4 5.7.3 11.4.2 17 0 2.5-.4 4.9-.6 7.4-.2 3-.6 5.9-1.1 8.9-1.1 6.6-2.6 13.2-4.5 19.6-1.8 6-3.9 11.8-6.5 17.4-2.5 5.5-5.2 10.9-8.4 16q-3.75 6.15-8.1 12c-2.1 2.8-4.3 5.5-6.6 8.2q-3.6 4.2-7.5 8.1c-4 4-8.3 7.8-12.7 11.3-5 4-10.3 7.6-15.9 11-7.3 4.4-14.8 8-22.7 11.1-8.7 3.3-17.7 5.9-26.8 7.5q-5.55.9-11.1 1.5c-4.7.7-9.6.9-14.8.8M199.6 62h-7.8c-.4 0-.8 0-1.2.1-2 .4-4.1.3-6.2.6-2.9.4-5.8.7-8.7 1.2q-7.35 1.35-14.4 3.3c-6.6 1.9-13.1 4.3-19.4 7.2-7.9 3.6-15.4 7.9-22.5 13-5.6 4-10.8 8.3-15.8 13.1-4.5 4.3-8.7 9-12.6 13.9-5.3 6.7-10 13.8-13.9 21.3-1.5 2.9-3 5.9-4.4 9-1.8 4.1-3.4 8.2-4.8 12.4-1.5 4.6-2.8 9.2-3.8 14-.7 3.5-1.4 7-1.9 10.5-.4 2.7-.7 5.5-.9 8.2-.3 4.1-.6 8.2-.5 12.4 0 2.2.2 4.4.3 6.5.1 2 .2 4 .4 6 .2 2.3.6 4.6.9 6.8.6 4.5 1.5 8.9 2.7 13.3 1.7 6.8 3.9 13.4 6.7 19.9 2.3 5.3 4.9 10.5 7.8 15.5 3.2 5.5 6.8 10.8 10.7 15.8 3.3 4.2 6.9 8.3 10.7 12.2 3.9 4 8.1 7.7 12.4 11.1 4.6 3.7 9.5 7.1 14.6 10.1 5.3 3.2 10.7 6 16.4 8.4 7 3 14.2 5.4 21.5 7.2 6.4 1.6 12.8 2.7 19.3 3.3 3.6.3 7.2.7 10.8.7h5.7c3.6.1 7.2-.1 10.8-.5 3.2-.3 6.4-.8 9.6-1.3 6.1-1 12.1-2.4 17.9-4.2 8.9-2.7 17.5-6.3 25.7-10.8 5.4-3 10.6-6.2 15.6-9.9s9.8-7.6 14.2-12c2.6-2.6 5.3-5.2 7.8-8.1 2.1-2.5 4.2-5 6.2-7.6q5.7-7.35 10.2-15.3c2.8-4.9 5.3-9.9 7.5-15.1 2.5-5.9 4.5-11.9 6.2-18.1 1.5-5.4 2.5-11 3.3-16.5.3-2.2.6-4.4.8-6.7.2-2.7.6-5.4.6-8.1 0-4.6.2-9.3-.2-13.9-.2-2-.3-4-.5-6-.5-4.2-1.1-8.4-2-12.6-1.1-5.6-2.6-11.1-4.4-16.5-1.3-3.9-2.8-7.7-4.4-11.4-2.5-5.6-5.3-11-8.5-16.2-1.9-3.2-4-6.3-6.2-9.3-3.2-4.4-6.6-8.7-10.4-12.7-3.3-3.5-6.7-6.9-10.3-10.1-2.5-2.2-5.1-4.3-7.7-6.3-5.4-4.2-11.2-7.9-17.2-11.2-7.1-3.9-14.5-7.1-22.2-9.7-7.9-2.7-16-4.6-24.3-5.8-2.1-.3-4.2-.6-6.3-.8s-4.1-.5-6.2-.5c-2.4.1-5 .2-7.7.2m-5.5-27.7c.3-.2.3-.5.3-.7-.1-2 0-4-.3-6-.1-.6-.1-1.3-.1-1.9 0-1.5 0-3-.3-4.5-.1-.8-.2-1.6.1-2.3.3-.3.6-.4.8-.4 1.3 0 2.6-.2 3.8 0 .5.3.5.8.6 1.1.1.4.1.8.1 1.2.1 3.3.2 6.7.5 10 .3 2.8.2 5.6.5 8.4.2 1.7.2 3.4.1 5.2-1.5.7-3 .7-4.5.6-.6-.1-.9-.5-1.2-.9-1.2-1.6-2.3-3.1-3.5-4.7l-6.6-9c-.1-.2-.3-.4-.5-.4-.3.1-.3.3-.3.5.1 1.9-.1 3.9.3 5.8.1.4.1.9.1 1.4.1 1.7 0 3.4.3 5.2.1.6.1 1.3 0 1.9 0 .2-.1.4-.1.6-1.1.5-2.4.6-4.8.4-.3-.2-.4-.6-.4-.9-.1-.6-.2-1.3-.2-1.9-.2-3.3-.2-6.7-.5-10-.3-2.8-.1-5.6-.5-8.4-.1-1-.1-1.9.3-2.9.5-1.5 2.2-2.6 3.8-2.5.6 0 1 .3 1.3.7.6.7 1.1 1.5 1.6 2.2 2.9 3.9 5.7 7.8 8.6 11.7.2.2.3.5.7.5M98.9 80.9c-.7-.2-1-.7-1.3-1.1-4-5.4-7.9-10.8-11.9-16.3-.6-.8-1.1-1.8-1.1-2.8 0-1.5.7-2.5 1.8-3.3.5-.4 1.1-.3 1.6-.1 1.3.5 2.7 1 4 1.5 4 1.5 8 3 11.9 4.5.4.1.7.4 1.2.3.3-.3-.1-.5-.2-.7-2.7-3.7-5.3-7.3-8-11-.3-.4-.7-.8-.8-1.2 0-.4.2-.6.5-.8 1.1-.8 2.1-1.8 3.3-2.2.6.1.8.5 1 .8 2.2 3 4.4 6 6.7 9 2.4 3.2 4.7 6.5 7.1 9.7.3.5.8.9.8 1.5-.1.1-.1.3-.2.4-1.1.8-2.2 1.7-3.2 2.4-.8.1-1.3-.1-1.8-.3-3.6-1.3-7.1-2.6-10.7-4-2-.7-4-1.5-6-2.2-.3.4 0 .7.2.9 2.6 3.6 5.2 7.1 7.8 10.7.3.5.6.9 1 1.4-.4.9-1.3 1.2-1.9 1.8-.4.3-1 .9-1.8 1.1m274 94c.3-.2.5 0 .6.1 3.7 3 5.6 6.9 5.3 11.8-.1 2.3-.9 4.5-2.3 6.4-3 4.4-7.3 6.4-12.5 6.2-2.9-.1-5.5-1.1-7.8-2.9-2.6-2.1-4.2-4.7-4.9-7.9-1.6-8 3.4-14.3 10-16.1 1.9-.5 3.9-.5 5.8-.3 3.6.5 5.4 2.9 5.6 6.1.2 2.5-1.4 4.4-3.7 4.8h-.7c-.2 0-.3-.1-.4-.2-.2-.3-.1-.6.1-.8.3-.5.3-1.1.3-1.7q-.15-1.65-1.5-2.4-.9-.45-1.8-.6c-2.1-.1-4 .4-5.6 1.8-.8.7-1.6 1.5-2.1 2.5-2.5 4.7-.5 10.9 5.6 12.2 2.9.6 5.5 0 7.7-2s3.1-4.5 2.8-7.4c0-.2-.1-.3-.1-.5-.4-1.2-.4-2.3.1-3.5.7-1.4.3-2.9-.2-4.4-.1-.4-.5-.7-.3-1.2M74.2 82.3c-.3.3-.6.3-.9.4-1.8.7-2.5 2.2-1.9 4 .2.7.6 1.2 1.1 1.8 3.1 3.5 8.3 3.5 11.6.7 1.9-1.7 2.8-3.8 2.8-6.2 0-2.9-1.4-5.2-3.6-6.9-3.5-2.7-9-2.4-11.9 1.7-.2.3-.5.7-.7 1s-.5.5-.8.6c-2.3.6-3.7 2.1-4.6 4.3-.1.1-.2.3-.3.4-.4-.1-.3-.3-.3-.5-.3-5.7 2.2-9.8 6.9-12.8 1.1-.7 2.3-1.1 3.5-1.3 2.7-.5 5.4-.5 8 .5 5.4 2.2 8.7 6.2 9.1 12.1.4 4.9-1.6 8.9-5.5 11.8-4.3 3.2-9 3.6-13.8 1.6-3-1.3-5.2-3.5-6.8-6.4-1.9-3.5.7-7.7 3.8-8.6 1.9-.7 3.4 0 4.3 1.8m174.7-29.2c-.1-.8.2-1.3.4-1.8 1.6-3.7 3.1-7.4 4.7-11.1l2.4-5.7c.3-.7.6-1.4.9-2 .3-.7.8-1.3 1.4-1.7.8-.6 1.7-.9 2.7-.7.1 0 .2 0 .3.1 3 1.1 6 2 8.5 4 3.4 2.8 4.7 6.4 4.2 10.7-.3 2.3-1.1 4.4-2.2 6.5-1.5 2.7-3.7 4.7-6.5 5.9-2 .8-4 1-6.1.4-2.3-.7-4.6-1.5-6.8-2.5-1-.4-1.9-.8-2.8-1.2-.3-.4-.7-.6-1.1-.9m13-17.3c-.9 1.4-5.8 13.2-6.2 14.6 1.5.7 3 1.5 4.7 1.8 2.3.5 4.1-.3 5.6-1.8 1.6-1.6 2.6-3.5 2.9-5.7.6-3.3-.4-5.8-3.4-7.4-1-.6-2.3-1-3.6-1.5m-128 22.9c-.6-.4-.7-1-.9-1.5-2.2-5.8-4.5-11.7-6.7-17.5-.3-.9-.6-1.7-.8-2.6-.3-1.6.2-2.8 1.5-3.7.4-.3.9-.5 1.4-.7 1.5-.6 3.1-1.3 4.7-1.8 5.4-1.8 10.3-.1 13.5 4.1 2.7 3.6 3.7 7.6 3.2 12-.4 3.2-2 5.8-4.8 7.4-3.3 1.9-6.9 3.1-10.5 4.4-.1-.1-.4-.2-.6-.1m3.1-6.8c1.6-.3 4.1-1.3 5.2-2.2s1.9-2 2.2-3.4c.3-1.3.2-2.6-.1-3.9-.5-2-1.3-3.9-2.9-5.4-1.7-1.6-3.8-1.9-5.9-1.4-1.1.3-2.2.8-3.2 1.2-.3.1-.6.3-.7.6.5 2.2 4.7 13.3 5.4 14.5m163.2 31.2c.2-.7.7-1 1.1-1.4 4.6-4.6 9.1-9.2 13.7-13.8.4-.4.8-.8 1.3-1.2 1.6-1.2 3.3-1.3 4.9.1 1.7 1.5 3.5 3 4.8 4.9 3.1 4.3.9 9.8-3.9 10.8-.5.1-1 0-1.4.3-.2.3-.1.5-.1.7.1.6.1 1.1.2 1.7.3 4.3-3.9 7.4-7.2 7.5-2.2 0-4-.6-5.7-2-.1-.1-.3-.2-.4-.3l-6-5.7c-.6-.5-1.1-.9-1.3-1.6m7.3.3c.7.7 1.3 1.4 2 2 .4.4.9.7 1.4 1.1.4.3.9.5 1.4.7 1.4.5 2.9-.2 3.3-1.6.3-.9.3-1.9-.1-2.8-.6-1.3-1.5-2.3-2.9-2.8-.3-.1-.6-.1-.7-.4 0-.2-.1-.4-.1-.7-1.3.8-3.6 3.3-4.3 4.5m11-11.7-3.8 3.8c-.2.2-.5.5-.7.8v.2s0 .1.1.1c1.9.2 1.8.2 3.8 1.3l.6.3c.5.2 1 .2 1.5.1 1.6-.5 2.3-2.1 1.4-3.6-.6-1.2-1.4-2.3-2.9-3M36.4 174.4c3.2.8 6.3 1 9.2 1.8.1 0 .2.2.3.4 0 1.5-.4 3-.7 4.5-.7.4-1.3.2-1.8.1-1.9-.3-3.8-.7-5.8-1l-13.2-2.4c-.7-.1-1.5-.3-2.2-.6-2-.7-2.9-2.3-2.6-4.3.2-1.2.4-2.5.7-3.7.2-.9.3-1.8.5-2.7.1-.7.4-1.4.7-2.1 1.3-2.8 3.6-4.3 6.6-4.6 4-.3 7.3 1.2 9.8 4.4.4.5.6 1.1.9 1.7.2.3.2.7.6.9.8-.2 1.5-.7 2.2-1.1s1.4-.8 2.1-1.1c.8-.4 1.5-.8 2.3-1.2.7-.3 1.3-1 2.1-1q.45.3.3.6c-.2 1.3-.5 2.6-.7 3.9-.2 1.1-.7 1.7-1.6 2.2-3 1.5-6 3.2-9 4.8-.1.2-.3.3-.7.5m-3.6-.5c-.4-.7-.2-1.1.2-1.5.5-.5.7-1.2.8-1.9.6-2.2-.3-4-2.5-5-.6-.3-1.2-.2-1.9-.3-1.7 0-2.8.5-3.4 2.5-.4 1.4-.6 2.9-.8 4.5 2.4.9 4.9 1.1 7.6 1.7m318.5 47.4c-.4-.3-.4-.6-.4-.8.2-1.2.3-2.5.3-3.8 0-1 .5-1.7 1.3-2.2 3.2-2.1 6.3-4.2 9.5-6.3-3.2-.3-6.3-.5-9.3-.9-.6-.5-.5-1.1-.5-1.6 0-1.1 0-2.3.6-3.4 1-.3 2-.2 3.1-.1 2.2.2 4.5.4 6.7.6 2.1.2 4.1.4 6.2.6 1.8.2 3.7.3 5.5.4.8.1 1.5.2 2.2.5 1.7.8 2.5 2 2.4 4-.1 2.2-.3 4.4-.6 6.5-.6 4.4-3.6 7-7.8 7.4-3.1.2-5.8-.8-8.1-2.7-.6-.5-1.1-1.2-1.5-1.9-.3-.4-.5-.9-.8-1.3-.7-.2-1.1.2-1.6.5-1.8 1.2-3.6 2.4-5.5 3.6-.7.4-1.1.8-1.7.9m14.5-12c-.6.8-.9 1.8-1.1 2.8-.3 1.9.5 3.4 2.3 4.2.9.4 1.8.4 2.7.4 1.6-.1 2.7-1 3-2.5.3-1.3.5-2.6.5-3.9 0-.3 0-.7-.4-1-2.3-.5-4.7-.4-7-.7-.1 0-.2.1-.3.1zm-189-163.4c-1.1.5-2.2.6-3.3.9-1.6.4-1.7.6-2.8-1.1-.5-.8-1.1-1.6-1.6-2.4-.3-.5-.8-.7-1.3-.6-1.2.2-2.5.5-3.7.9-.9.3-1.5.8-1.5 1.9 0 .2-.2.3-.2.4-1.5 0-1.7-.1-3.7-2-.2 1-.3 1.8-.5 2.7-.2 1-.3 1.9-.4 2.9-.1.4-.3.7-.7.9-.8.3-3.6.8-4.5.8-.3-.3-.2-.6-.2-1 .6-4 1.2-8 1.9-12.1.5-3.3 1-6.7 1.5-10 .1-.7.2-1.5.5-2.2.7-2.4 2.6-3.2 4.3-3.4.7-.1 1.2.1 1.6.7.2.3.5.7.7 1 4.4 6.6 8.9 13.3 13.3 19.9.2.6.6 1.1.6 1.8m-17.4-5.4c1.1-1.1 2.5-1.8 4-2.1l1.2-.3c.3-.1.6-.1.7-.5 0-.1-.1-.3-.2-.4-1.3-2-2.7-4-4.1-6-.1-.1-.2-.1-.4-.2-.6 2.8-.8 5.7-1.4 8.5 0 .2-.1.6.2 1m174.7 79.3c-.9-1.8.1-3 1.1-4.4-2.4.2-4.5.7-6.6.9-1-1-2.2-3.1-2.6-4.6.5-.5 1.2-.5 1.9-.6 4.4-.7 8.8-1.4 13.3-2 3.1-.5 6.1-.9 9.2-1.4 2.2-.3 4.1.7 5.2 2.6.2.4.4.8.5 1.2-.1.8-.5 1.2-.9 1.7-3.3 4.1-6.6 8.1-9.9 12.1l-5.1 6.3c-.5.6-.9 1.3-1.6 1.7-.7-.2-.8-.8-1.1-1.3l-.9-1.5c-.3-.5-.6-1-.7-1.7.8-1.5 2.3-2.7 3.3-4.4-.6-1.4-1.3-2.7-2.3-3.9-.9-.6-1.6-1.2-2.8-.7m4-4.7c1.6.9 2.2 1.4 2.9 2.3.4.6.8 1.3 1.2 1.9.1.2.3.5.7.6.1-.1.3-.2.5-.4 1.5-1.9 3.1-3.8 4.7-5.8-1.7-.1-8.2.8-10 1.4m27.3 153.8c.1.5-.3.7-.6 1-1.5 1.5-3.1 3.1-4.7 4.6-.7.7-1 1.4-.8 2.4.4 2.1.7 4.2 1.1 6.3.1.4.2.8-.1 1.2-.4.3-.8 0-1.1-.1-1.7-.9-3.5-1.8-5.2-2.7-.6-.3-1.2-.7-2-.9-1.3.7-2.7 1.3-4 2.1-1.3.7-2.5 1.5-4.1 1.9-.2-1.7.3-3.1.5-4.7.2-1.5.5-2.9.7-4.4-1.9-2.4-4.5-4.1-6.5-6.5.6-.5 1.2-.5 1.8-.6 1.9-.3 3.9-.5 5.8-.8.5-.1 1-.2 1.5-.4.6-.7.9-1.5 1.3-2.3.8-1.6 1.5-3.2 2.3-4.8.2-.4.3-.7.8-.9.5.1.6.5.8.8 1 2 1.9 3.9 2.9 5.9.2.4.4.7.6 1.1.7.4 1.5.5 2.3.6 1.8.2 3.6.5 5.5.8.3 0 .8.1 1.2.4m-179.8 95.5c.6-.3 1.2-.4 1.8-.5 1.9-.3 3.7-.5 5.6-.8 1.1-.1 1.8-.6 2.2-1.6.7-1.7 1.6-3.3 2.4-5 .3-.6.5-1.4 1.1-1.8.6.1.6.6.8.9.9 1.9 1.9 3.8 2.8 5.7.5 1.1 1.3 1.6 2.5 1.8 1.9.2 3.8.5 5.6.8.6.1 1.1.2 1.7.6-.7 1.4-2 2.2-3 3.3s-2.1 2.1-3.3 3.2c0 1.4.5 2.9.7 4.3l.6 3.9c0 .3.1.6-.3.9-.9-.2-1.7-.7-2.5-1.2-.9-.5-1.8-.9-2.7-1.4s-1.7-1-2.7-1.3c-1.5.5-2.8 1.4-4.2 2-1.3.6-2.5 1.6-3.9 2-.6-.3-.4-.8-.4-1.1.2-1.5.5-3.1.8-4.6.1-.8.2-1.6.4-2.4s0-1.3-.6-1.9l-4.5-4.5c-.3-.3-.8-.6-.9-1.3m-128-79.8c-1-.2-1.8-.8-2.7-1.3-.9-.4-1.7-.9-2.6-1.4s-1.8-.9-2.7-1.4c-1.6.6-2.8 1.5-4.2 2.1-1.3.6-2.5 1.5-4.1 1.9-.2-1.7.4-3.1.6-4.7.2-1.5.5-2.9.7-4.4-1-1.3-2.2-2.3-3.3-3.4-1-1.1-2.2-2-3-3.2.3-.4.7-.5 1.1-.5 1.9-.3 3.7-.5 5.6-.8.7-.1 1.5-.2 2.2-.5.8-1.2 1.4-2.6 2.1-3.9s1.2-2.7 2.1-3.9c.5-.1.7.3.8.6 1 1.9 1.9 3.8 2.8 5.7.3.5.4 1.1.9 1.5 1.4.6 3 .5 4.5.8 1.1.2 2.2.3 3.2.4.4.1.9.1 1.2.7-.4 1-1.4 1.4-2.1 2.2-.6.7-1.4 1.4-2.1 2.1s-1.5 1.4-2.1 2.3c.3 3 1.2 5.8 1.2 8.8.1.1 0 .2-.1.3m312-142.6c-.3.4-.7.5-1.1.7-4.4 1.7-8.9 3.5-13.3 5.2-2.1.8-4.2 1.5-6.5 1.4-1.9-.1-3.6-.7-4.9-2.1-1.8-1.8-2.8-4.1-3.3-6.5-.2-1-.4-1.9-.2-2.9.4-2.2 1.6-3.8 3.3-5.1 1.3-1 2.8-1.7 4.2-2.3l13.8-5.4c.4-.1.7-.4 1.3-.1.8 1.2 1.3 2.7 1.7 4.2-.4.7-1.1.8-1.8 1.1-3.3 1.3-6.5 2.6-9.8 3.8-1.2.5-2.5 1-3.7 1.5-.8.3-1.6.7-2.3 1.3-1.1.8-1.6 1.9-1.4 3.3.2 1.3.7 2.3 1.7 3.1.8.7 1.8.9 2.9.7 1-.2 1.9-.5 2.8-.8l9.9-3.9c.4-.2.9-.3 1.3-.4 2.1-.6 3.7.1 4.8 2 .4.2.7.6.6 1.2M34.2 196.3c3.5 0 6.7.1 9.8.5.5.5.4 1.1.4 1.6 0 .6 0 1.1-.1 1.7-.1.5-.2 1-.3 1.4-.3.4-.7.4-1 .4-1.4 0-2.8.1-4.1-.2-.3-.1-.7-.1-1-.1-4.5.1-9.1-.5-13.6-.4-1 0-2.1-.2-3.1-.3-1.7-.2-3.4-1.7-3.4-3.9 0-2.5.1-5.1.4-7.6s1.6-4.4 3.8-5.7c4.2-2.5 10.1-1.1 12.9 2.3 1.4 1.7 2.1 3.7 1.9 5.9-.2 1.7-.7 3.3-2.6 4.4m-3.8-.3c.2-.6.3-1 .4-1.3q.45-1.05.6-2.1c.3-1.8-.5-3.3-2.2-4-1.2-.6-2.5-.6-3.7-.2-1.2.3-1.9 1.2-2.1 2.5q-.3 1.8-.3 3.6c0 .4 0 .8.3 1.2.1.1.3.2.5.3 2.1.1 4.3-.1 6.5 0m6.3 20.5c.8.6 1.7 1.1 2.5 1.5 1.8.9 3.7 1.9 5.5 2.8 1 .5 1.4 1.1 1.4 2.2 0 .9.2 1.7.3 2.6 0 .5.2 1-.1 1.5-.3.2-.6.1-.8-.1-2.1-1.1-4.2-2.1-6.3-3.2-2-1-4.1-2.1-6.1-3.2-.3-.2-.6-.3-1.2-.2-3.7 2.8-7.4 6.1-11.2 9-.5-.2-.6-.4-.7-.7-.1-1.1-.2-2.2-.4-3.2-.2-1.1.2-2 1.1-2.7 1.9-1.5 3.7-3 5.6-4.6.2-.1.3-.3.6-.5-.6-.6-1.2-.9-1.9-1.2-1-.5-2-1-2.9-1.5l-2.1-1.2c-2.1-1.4-2.7-3.5-2.3-5.9 0-.1.1-.2.2-.3 0 0 .1-.1.2-.1.5-.2 1 .2 1.4.4 3.2 1.6 6.4 3.3 9.7 5 .7.4 1.4.7 2.1 1 .7 0 1.2-.4 1.6-.8l8.4-6.9c.7-.6 1.4-1.2 2.1-1.7.2-.1.4-.2.6-.1q.3.15.3.6c.2 1.4.3 2.8.5 4.3.1.6-.2 1-.7 1.3-2 1.6-3.9 3.2-5.9 4.8-.6.1-1.2.5-1.5 1.1m319.7-59.4c-3.2.6-6.1 1.6-9.2 2-.8-1.5-1-3.1-1.3-4.4.3-.7.9-.8 1.4-.9 2.8-.7 5.7-1.4 8.5-2.1 3.3-.8 6.7-1.6 10-2.4.7-.2 1.5-.3 2.2-.5 1.9-.3 3.5.6 4.3 2.4.2.4.3.8.4 1.1.5 1.9.9 3.8 1.4 5.7.3 1.4.3 2.7 0 4.1-.6 2.4-2.1 4.1-4.3 5.1-3.8 1.8-7.6 1.8-11.1-.7-2.5-1.8-3.4-4.4-3.1-7.4.1-.6.6-1.1.8-2m4.3-.2c-.1.8-.3 1.6-.2 2.5.3 2.5 1.7 3.6 4 3.7 2.5.2 4.3-1.6 4.2-4.1 0-1.3-.4-2.5-.7-3.7-.1-.3-.1-.7-.5-.8-2.1.2-7.1 1.5-7.2 1.8.1.2.3.4.4.6M47.1 229.6c.1.2.3.4.3.6l3.3 13.2v.5c-.4.6-1 .6-1.6.7-5.2 1.3-10.3 2.6-15.5 3.9-1.5.4-3 .8-4.5 1.1-2.9.5-4.5-1.1-5-2.9-.9-3.3-1.7-6.7-2.6-10-.1-.2 0-.5 0-.6.2-.4.4-.6.7-.6 1.3-.3 2.5-.8 3.8-.8.6.3.7.8.8 1.3.5 2.1 1.1 4.2 1.7 6.3.1.5.3 1.1.5 1.6 1.4 0 3.7-.5 5-1.2.2-.4 0-.8-.1-1.2-.6-2.3-1.1-4.6-1.7-6.8-.1-.5-.3-1 0-1.5 2.4-1 4.9.1 5.6 2.5.4 1.4.7 2.9 1.1 4.3.1.4.2.9.5 1.2 1.2 0 2.9-.4 4.7-1.1.3-.4.1-.9 0-1.3-.6-2.2-1.1-4.5-1.7-6.7-.1-.5-.3-1-.2-1.5.4-.5 1-.6 1.5-.7s1-.3 1.5-.4c.6 0 1.1-.2 1.9.1m-18.3-92.3c1.3.1 3.4.8 4.5 1.4.3.5 0 .9-.1 1.3-.7 2.1-1.3 4.3-2 6.4-.2.5-.4 1.1-.4 1.8 1.5.7 3 1.1 4.6 1.5.7-.4.7-1 .9-1.5.7-2 1.3-4.1 1.9-6.1.2-.5.3-1.1.8-1.5 1.3 0 2.1.9 2.9 1.9.7.8.9 1.8.6 2.8-.2 1-.6 2-.8 3-.3 1-.8 2-.9 3.2 1.3.6 2.7 1 4.1 1.4.3.1.6.1.9-.1.4-.4.5-1 .7-1.5.6-2 1.2-3.9 1.9-5.9.2-.5.3-1.1.8-1.5 1.5.1 3.4.8 4.5 1.5.1.3.1.6 0 .8-1.3 4.3-2.7 8.5-4.1 12.8-.1.2-.3.4-.4.5-.7.3-1.3-.1-1.9-.3-1.8-.5-3.5-1.1-5.3-1.6-4.3-1.4-8.7-2.7-13-4.1-.6-.2-1.2-.4-1.7-.7-1.8-1-2.6-2.8-2.1-4.8.2-.9.6-1.9.8-2.8.7-2.3 1.5-4.6 2.2-6.9.2-.5.3-.8.6-1m241.9-74.5c-.1-.7.3-1.2.6-1.6 3.2-5.5 6.5-10.9 9.8-16.4.4-.7.9-1.5 1.6-2.1 1.2-1.1 2.6-1.5 4.1-.9.4.2.9.3 1.3.6 2.6 1.5 5.1 3 7.7 4.6.5.3 1.1.5 1.3 1.2-.6 1.4-1.5 2.7-2.3 3.9-.7.1-1.1-.2-1.5-.4-1.8-1.1-3.6-2.2-5.5-3.3-.6-.3-1.2-.7-1.8-1.1-1.1 1.4-1.9 2.8-2.5 4.2.1.6.5.8.8 1 2.1 1.2 4.1 2.5 6.2 3.7.4.2.9.4 1.1 1-.3 1-1.2 1.6-2.2 2.2q-1.2.75-2.7.3c-.5-.2-1.1-.4-1.6-.7-1.1-.6-2.3-1.3-3.4-2-.3-.2-.7-.5-1.1-.5-1 .9-2.2 2.9-2.6 4.3.1.4.5.6.9.8 1.9 1.1 3.8 2.3 5.8 3.4.5.3 1 .5 1.3 1-.3 1.4-1.4 3.2-2.5 4.2-.1 0-.3 0-.5-.1-3.9-2.3-7.9-4.7-11.8-7-.3 0-.4-.1-.5-.3M229 42.7c.5.3 1.1.4 1.8.6 2.2.5 4.4.9 6.6 1.4.3.1.7.1.9.4.2 1.3-.3 3.6-1 4.8-.1 0-.3.1-.5.1-4.5-.9-9-1.9-13.5-2.8-.2 0-.4-.2-.6-.3-.3-.5-.2-1.1-.1-1.6.7-3.5 1.5-7 2.2-10.4l1.8-8.4c.1-.6.2-1.1.4-1.7.6-1.7 2.4-3.5 5-2.9 3.1.7 6.3 1.3 9.4 1.9.4.1.7.3 1.1.4.2.9-.1 1.6-.2 2.4-.2.8-.2 1.6-.7 2.4-.6.3-1.3 0-2-.1-1.7-.3-3.5-.7-5.2-1.1-.8-.2-1.6-.3-2.3-.4-.6 1.2-1.2 3.5-1.2 5.1 1.5.6 3.2.8 4.8 1.2 1.5.4 3.2.5 4.6 1.1-.2 2.8-2.3 4.5-4.9 4.1-1.6-.3-3.2-.6-4.7-.9-.3-.1-.6-.2-.8 0-.4.7-1 3.3-.9 4.7m101.7 49.9c1.8 2.7 4 5 5.7 7.6-1.5 1.9-4 2.1-5.7.7-.6-.5-1.1-1.2-1.6-1.8-.8-1.1-1.6-2.2-2.6-3.2-1.3.5-3.1 2-4.1 3.2.7 1.4 1.9 2.5 2.8 3.8s2 2.5 2.8 3.8c-.8 1.2-2.1 2.3-3.8 3.1-.7-.2-1-.8-1.5-1.3-1.6-2-3.2-4.1-4.8-6.1-.8-1-1.6-2.1-2.4-3.1-.2-.3-.5-.6-.6-1.1.1-.6.8-1 1.3-1.4 1-.8 2-1.6 3-2.3 4.1-3.2 8.1-6.4 12.2-9.5.7-.6 1.5-1.1 2.4-1.3 1.4-.4 2.6 0 3.7.9.4.3.7.6 1 1 2 2.5 4 5.1 5.9 7.6.2.2.3.5.3.8-.7.9-2.2 2.1-3.7 3-.5 0-.8-.4-1.1-.8-1.5-1.8-2.9-3.7-4.4-5.5-.3-.4-.5-.8-.9-1-1.1.2-2.9 1.6-3.9 2.9M57.9 122c-.3-1.5-.7-3-.3-4.5.5-.5 1.1-.4 1.7-.4 1.1 0 2.1-.4 3.1-.9.6-.3 1.1-.8 1.6-1.3.5-.6.7-1.3.7-2.1 0-1.2-.6-2-1.8-2.2-.7-.1-1.4-.1-2 .1l-3 .9-3.6 1.2c-1.3.4-2.7.5-4.1.6-3.4.1-6.4-2.9-6.3-6.4.1-3.8 1.9-6.4 5.1-8.1 1-.5 2.1-.6 3.2-.4 1.6.2 2.7 1.6 2.7 3.3 0 .1-.1.2-.2.3-.4.4-1 .2-1.5.3-1.7.3-3.1 1.1-3.8 2.8-.3.6-.3 1.2-.2 1.9s.5 1 1.2 1.1c.6 0 1.1 0 1.7-.2 1.5-.5 2.9-.9 4.4-1.4 1.2-.4 2.3-.7 3.5-1 1.4-.3 2.9-.4 4.3-.1 2.9.6 4.7 2.5 5.5 5.3.3 1 .4 2 .2 3.1-.7 3.3-2.5 5.7-5.5 7.2-1.7.9-3.5 1.4-5.5 1.3-.2 0-.5 0-.7-.1 0-.1-.1-.2-.4-.3m161.5-94.8c-.6-.3-.7-.8-1.1-1.3-.8-1.1-1.8-1.8-3.1-2.1-.9-.2-1.7-.1-2.5.3-.9.5-1.1 1.3-.6 2.2.5.8 1.2 1.6 1.9 2.3 1.4 1.4 2.8 2.8 4.1 4.2.9.9 1.5 1.9 2.1 2.9 2.1 4.3-.4 9.3-4.7 10.4-3.6.9-6.7 0-9.5-2.4-1.2-1-2.1-2.2-2.7-3.5-.2-.4-.4-.7-.3-1.1.9-1 2.3-1.9 4-2.6.4.1.5.4.7.7.6 1.1 1.4 2 2.3 2.8 1.1 1 2.4 1.3 3.8 1.1s2.2-1.5 1.6-2.8q-.3-.75-.9-1.5c-.6-.8-1.2-1.5-1.9-2.2-1.1-1.2-2.3-2.3-3.4-3.4-1.2-1.3-2.2-2.7-2.6-4.4-.6-2.4.4-5.1 2.4-6.5 1.9-1.4 4.1-1.8 6.4-1.4 1.5.3 2.9.8 4.1 1.7.6.5 1.1 1 1.4 1.7 1 1.9.6 3.7-1.3 4.9zM48.3 135.8c.8-.2 1.4-.4 2.1-.5 1.3-.4 2.6-1 3.5-2 .6-.7 1-1.4 1-2.3.1-1.4-.7-2.3-2.1-2.4-.7 0-1.4.1-2 .4-1.3.6-2.6 1.1-3.9 1.8-1.8.9-3.7 1.6-5.6 2.1-3.7.9-8.5-2.1-7.9-7.5.3-2.7 1.7-4.9 3.9-6.5 1.3-1 2.7-1.4 4.4-.8 1.4.5 2 1.6 2.2 3.1-.7.2-1.4.4-2 .6-1.6.6-2.7 1.7-3.1 3.4-.1.5-.1.9 0 1.4.2.9 1 1.3 1.8 1.1q1.65-.45 3-1.2c1.7-.8 3.3-1.6 5-2.3 1.4-.6 2.8-.9 4.3-1 3.7-.2 8.3 3.6 7.2 8.9-.6 3-2.3 5.4-5 6.9-1.7 1-3.6 1.8-5.7 1.6-.7-.6-.6-1.5-.8-2.2-.1-.8-.3-1.6-.3-2.6m320.3 104c-.7-.4-1.2-.5-1.8-.6-5.6-1.3-11.2-2.5-16.8-3.8-.6-.1-1.2-.3-1.7-.6-.1-1.3.3-3.5 1-4.8.4-.3.9-.1 1.3 0 3.9.9 7.7 1.7 11.6 2.6l6.6 1.5c.3.1.6.1 1-.1.5-.7.5-1.6.7-2.5s.3-1.8.8-2.6c1.4-.1 3.4.3 4.8 1.1.2.5 0 .9-.1 1.3-2.2 10.7-3.1 14.5-3.8 15.9-.3.2-.7.2-1 0-.6-.2-1.2-.5-1.7-.9-1.3-1-1.8-2.3-1.5-4 .3-.7.4-1.6.6-2.5M56.3 87.9c.2.1.4.1.6.2 6.6 5 13.1 10 19.7 15l.6.6c-.5 1.3-1.7 3-2.9 4-.7 0-1.1-.5-1.6-.9l-12.6-9.6c-1.1-.9-2.3-1.7-3.4-2.6-.5-.4-.9-.8-1.3-1.4-.6-1.1-.8-2.2-.3-3.3.2-.8.5-1.5 1.2-2m181.8 280.3c-3 0-5.1-2.9-4.2-5.6.7-2 2.8-3.2 4.9-3.1 1.6.1 3.6 1.1 4.1 3.6.3 1.7-.7 3.8-2.3 4.6-.7.2-1.8.5-2.5.5M84.6 318.4c2.4 0 4.9 2.3 4.9 4.6 0 2.4-2 4.4-4.3 4.4-2.5 0-4.6-2.1-4.7-4.5-.1-2.6 1.7-4.5 4.1-4.5m249.8-12.7c0 2.2-.7 3.6-2.2 4.5s-3 .9-4.6.1c-1.6-.9-2.5-3.1-2-4.7.5-1.5 1.3-2.6 2.7-3.4 2.3-1.2 6.1.3 6.1 3.5m-22.8 16.1c1.4.1 2.8.8 3.5 2.6.6 1.7.5 3.3-.8 4.6-.3.3-.6.7-1 .9-1.8 1.2-3.8 1-5.3-.1s-2-3.2-1.3-4.9c.6-1.8 2.6-3.2 4.9-3.1M66.4 298c2.7-.1 5.3 3 4.4 6-.7 2.3-4.1 4.3-7 1.9-.6-.5-1.1-1.2-1.4-1.9-1.5-3.3 1.4-6.3 4-6m198.3 53c2.1.2 3.4 1.2 4.1 2.9.6 1.6.1 3.5-1.3 4.6-3 2.4-6 1-7.1-1.1-.9-1.7-.7-3.5.6-4.9 1.1-1.1 2.4-1.5 3.7-1.5M111 340.1c.2 2.5-2 4.4-4.3 4.4-2.5 0-4.7-2.2-4.8-4.6 0-2.5 2.2-4.5 4.4-4.4 2.6.1 4.7 2.1 4.7 4.6m178-1.8c2 0 3.4 1 4.1 2.5.7 1.7.3 3.7-1.1 4.9-.9.8-2 1.3-3.3 1.3-2 0-3.8-1.3-4.3-3.1-.5-1.7.2-3.8 1.8-4.8.9-.5 1.9-.9 2.8-.8m-158.9 19.5c-1.1 0-2.4-.7-3.4-2-1.2-1.6-.9-4.3.7-5.7 2.4-2.1 6.6-.9 7.5 2.1.9 2.9-1.1 5.6-4.8 5.6m26.1.5c1.4 0 2.6.4 3.6 1.4 1.3 1.3 1.6 2.8 1 4.4-.6 1.7-1.9 2.7-3.7 2.9-2.5.3-4.8-1.5-5.1-3.8-.5-2.7 1.5-4.9 4.2-4.9" class="st0"/><path d="M137.6 252.3c-.2-1.4-.4-25.9-.2-29.2 0-.3 0-.7.4-1.1.2-.2.5-.1.8-.2h57.2c3.8 0 7.7-.3 11.4-1.3 2.8-.8 5.4-1.8 7.8-3.5 3.9-2.9 6.1-6.8 7.1-11.4q.6-3 .6-6c0-3.6-.5-7.1-2.2-10.4-1.6-3-3.8-5.4-6.8-7.1-2.5-1.4-5.2-2.2-7.9-2.8-2.5-.5-5-.8-7.5-.8h-10c-.5 0-1 0-1.5.1-.3.2-.4.6-.4.9v30.1c0 .7.1 1.5-.3 2.1-.4.4-.8.4-1.2.4h-27.4c-.6 0-1.1 0-1.7-.1-.4 0-.6-.3-.7-.7-.1-.2-.1-.5-.1-.7v-59.9c0-.7-.2-1.5.3-2.1.3-.3.7-.3 1-.3h41.9c3.9 0 7.8.4 11.7 1q8.1 1.2 15.6 4.2c5 2.1 9.5 4.9 13.5 8.5 3.5 3.2 6.6 6.7 9 10.8 2.6 4.2 4.3 8.8 5.4 13.5.5 2.3.9 4.6 1.1 7 .3 3 .4 6.1.2 9.1-.5 10-3 19.4-8.7 27.7-4.5 6.6-10.2 11.8-17.1 15.7-5.6 3.2-11.5 5.1-17.8 6.1-2.1.3-4.2.5-6.3.7-6.9.5-13.9.1-20.8.2-4.9.1-9.9-.3-14.8-.3-4.9.1-9.9 0-14.8 0h-14.3c-1 .1-1.7.2-2.5-.2" class="st0"/><path d="M258 219.7c-.2-.6 0-1 .2-1.4 1.1-3.6 1.8-7.3 2.2-11 .3-3.4.6-6.8.4-10.1-.4-5.5-1.1-11-2.8-16.2-1.8-5.6-4.5-10.8-8.2-15.4-4.8-5.9-10.4-10.9-17.2-14.3-1.5-.8-3.1-1.5-4.7-2.2-.4-.2-.8-.3-1-.6 0-.4.3-.3.5-.3h59.1c4.8 0 9.5.5 14.1 1.7 2.7.7 5.3 1.7 7.6 3.1 5.7 3.3 9.2 8.2 10.6 14.6.8 3.5.9 7.1.6 10.6q-.6 6.15-4.2 11.4c-1.7 2.5-3.7 4.7-6.1 6.5l-.6.6c.1.6.5.7.8.9 1.6.8 3.1 1.7 4.6 2.7 5.6 4.1 9 9.6 10.2 16.4.3 1.4.4 2.8.4 4.3v4.3c-.2 6-2 11.4-5.6 16.2-3.3 4.4-7.6 7.6-12.8 9.6-1.8.7-3.8 1-5.7 1.1-5 .2-10.1.3-15.1.5-6.5.2-13.1.1-19.6.3-11.7.5-23.3.2-35 .3-.6 0-1.1 0-1.7-.1-.1 0-.2-.1-.3-.1-.1-.3.1-.4.2-.5.3-.2.6-.3.9-.5 4.6-2.2 8.7-5.2 12.4-8.6 5-4.6 9.1-9.9 12.2-15.9.3-.5.4-1.1.9-1.4s1-.2 1.5-.2c1.8 0 3.6-.1 5.3 0 3.7.1 7.3-.3 11-.3s7.4.1 11-.1c2.9-.2 5.8-.2 8.8-.3.5 0 .9-.1 1.4-.2 1.2-.2 2-1 2.3-2.1s.4-2.3.1-3.4c-.4-1.3-1.3-2.2-2.5-2.7-1.3-.5-2.8-.8-4.2-.8h-4.8c-.6 0-1.2.1-1.7-.1-.4-.2-.5-.6-.5-.9v-25c0-.7-.1-1.4.3-2 .5-.4 1.1-.3 1.7-.4 1.2 0 2.3-.3 3.4-.7 2.1-.8 3.2-2.4 3.3-4.6V181c-.2-1.4-.9-2.5-2.1-3.1-1.3-.7-2.7-1-4.1-1.1-1.9-.1-3.9 0-5.9 0-.2 0-.4.1-.6.2-.4.6-.3 1.2-.3 1.7v39c0 .7.1 1.5-.1 2.1-.3.4-.6.4-1 .5h-17.8c-.4-.4-1.1-.3-1.8-.6m-128.2-7.3c-.7.3-1.3.2-1.9.2-4.5 0-9-.1-13.4-.1h-4.1c-.6 0-1.1.1-1.7.2-2.1.5-3.1 1.9-3.4 3.9-.2 1.3.1 2.5.5 3.7.3.7.7 1.2 1.4 1.4.6.2 1.2.5 1.8.6 1.5.2 3.1.4 4.6.4h16c.7 0 1.4-.1 1.9.2.4.5.4.9.4 1.4v27.1c0 .5 0 .9-.4 1.3-.6.3-1.3.2-2 .2h-22.8c-4.9-.2-9.6-1-14.1-2.8-3.7-1.4-7-3.4-9.8-6.3-3.4-3.4-5.6-7.4-6.9-12-1-3.4-1.4-7-1.4-10.5v-42c0-3.6.4-7.1 1.4-10.5 2.1-7.5 6.6-13.2 13.5-16.9 3-1.6 6.3-2.6 9.6-3.2 3.1-.5 6.1-.7 9.3-.7h38.9c.7 0 1.5-.1 2.1.2.3.6 0 1-.2 1.4-1.6 4.2-3.2 8.4-4.8 12.5-1.8 4.7-3.6 9.3-5.3 14-.2.4-.4.8-.5 1.3-.3.7-.8 1.1-1.6 1h-21.8c-1.3 0-2.6 0-3.9.3l-1.8.6c-1.6.7-2.3 2-2.5 3.7-.1.7 0 1.5.2 2.2.4 1.4 1.2 2.3 2.6 2.7s2.8.7 4.2.7c4.2 0 8.4 0 12.6.1 2.8.1 5.5.2 8.3.2.2 0 .4.1.6.1.3.5.2.9.1 1.2-1.8 7-3.6 14-5.5 21 .2.5.1.9-.2 1.2" class="st0"/></svg>